<svg width="20" height="28" viewBox="0 0 20 28" fill="none" xmlns="http://www.w3.org/2000/svg">
<path d="M5.46023 24.8464C5.46023 25.1908 5.56341 25.5268 5.76045 25.8139L6.73432 27.219C7.03261 27.6497 7.70989 28 8.24795 28H11.7519C12.2882 28 12.9656 27.6499 13.2639 27.219L14.2343 25.8145C14.4012 25.5717 14.5382 25.1379 14.5382 24.8464L14.5455 22.7024H5.45455L5.46023 24.8464ZM9.96591 4.56827e-05C4.17273 0.0171373 0 4.53721 0 9.57609C0 12.0034 0.934091 14.2162 2.475 15.9095C3.4142 16.94 4.88068 19.0943 5.44205 20.9112C5.44382 20.9249 5.44738 20.9395 5.44915 20.954H14.5514C14.5532 20.9395 14.5568 20.9258 14.5585 20.9112C15.1196 19.0943 16.5864 16.94 17.5256 15.9095C19.0682 14.2633 20 12.0537 20 9.57609C20 4.29875 15.5057 -0.0161927 9.96591 4.56827e-05ZM10 5.25041C7.49261 5.25041 5.45455 7.21334 5.45455 9.57663C5.45455 10.1066 5.04545 10.5004 4.54545 10.5004C4.04545 10.5004 3.63636 10.1066 3.63636 9.62531C3.63636 6.24746 6.49148 3.54891 10 3.54891C10.5025 3.54891 10.9091 3.94045 10.9091 4.424C10.9091 4.90754 10.5 5.25041 10 5.25041Z" fill="#FFBF5C"/>
</svg>
